/* XPM */
static char *bitcoin__[] = {
/* columns rows colors chars-per-pixel */
"32 32 128 2",
"   c #020201",
".  c #080704",
"X  c #0B0B06",
"o  c #14130C",
"O  c #18160D",
"+  c #19191C",
"@  c #211E14",
"#  c #222303",
"$  c #232014",
"%  c #282514",
"&  c #2E2B19",
"*  c #322E1D",
"=  c #323012",
"-  c #36321D",
";  c #39351F",
":  c #1C1D22",
">  c #2C2C21",
",  c #3B3725",
"<  c #3D3921",
"1  c #37383D",
"2  c #3B3B3D",
"3  c #433F27",
"4  c #454219",
"5  c #534F19",
"6  c #7C7917",
"7  c #4B4629",
"8  c #554F2E",
"9  c #57512E",
"0  c #41403A",
"q  c #5F5732",
"w  c #625A33",
"e  c #686037",
"r  c #67603E",
"t  c #6C6439",
"y  c #776D3E",
"u  c #343641",
"i  c #545144",
"p  c #4C4D51",
"a  c #5A5957",
"s  c #6A6445",
"d  c #807644",
"f  c #827845",
"g  c #847A4B",
"h  c #A6A126",
"j  c #BCB62F",
"k  c #BDB829",
"l  c #ABA33F",
"z  c #B8B13B",
"x  c #DDB601",
"c  c #DEB806",
"v  c #DFB909",
"b  c #C2BF1A",
"n  c #E1BB0E",
"m  c #E1BD13",
"M  c #CDCD05",
"N  c #E4C11C",
"B  c #E5E503",
"V  c #E8E805",
"C  c #E6E608",
"Z  c #EEEC0A",
"A  c #FEFF00",
"S  c #FBF90D",
"D  c #F3EF1D",
"F  c #D8D12A",
"G  c #CFC639",
"H  c #E5C323",
"J  c #E9C725",
"K  c #E7C629",
"L  c #E8C72C",
"P  c #E8C82F",
"I  c #EACA34",
"U  c #EBCD3B",
"Y  c #8C8149",
"T  c #92874C",
"R  c #A49957",
"E  c #A89B57",
"W  c #A79A5B",
"Q  c #AA9D59",
"!  c #B5A65D",
"~  c #B8A95F",
"^  c #B7A860",
"/  c #B9AA60",
"(  c #BFB064",
")  c #CDBE5F",
"_  c #C7B861",
"`  c #CCBB64",
"'  c #C8B768",
"]  c #CABC6B",
"[  c #CEC441",
"{  c #DCD242",
"}  c #D8CB56",
"|  c #D9CC5B",
" . c #EDCF41",
".. c #EED145",
"X. c #EFD34C",
"o. c #F0D34D",
"O. c #E3C951",
"+. c #F2D652",
"@. c #F4D95C",
"#. c #DBCC63",
"$. c #D8C771",
"%. c #D4C872",
"&. c #F6DD65",
"*. c #F7DF69",
"=. c #E0CE74",
"-. c #E3D175",
";. c #E4D17A",
":. c #E9D57D",
">. c #EDDA7C",
",. c #F1DD7C",
"<. c #F8E06D",
"1. c #F9E273",
"2. c #F3E17F",
"3. c #FBE57A",
"4. c #91908E",
"5. c #A4A4A4",
"6. c #F0E582",
"7. c #FCE683",
"8. c #FEE984",
"9. c #F7E18B",
"0. c #FCE78C",
"q. c #FFEC8B",
"w. c #FFF187",
"e. c #FFF38A",
"r. c #FFFA8E",
"t. c #FFF494",
"y. c #FFFE91",
"u. c None",
/* pixels */
"u.u.u.u.u.u.u.u.u.u.u.u.u.u.u.u.u.u.u.u.u.u.u.u.u.u.u.u.u.u.u.u.",
"u.u.u.u.u.u.u.u.u.u.u.u.u.u.u.u.u.u.u.u.u.u.u.u.u.u.u.u.u.u.u.u.",
"u.u.u.u.u.u.u.u.u.u.u.u.u.u.v c c c c v u.u.u.u.u.u.u.u.u.u.u.u.",
"u.u.u.u.u.u.u.u.u.u.u.v x x x c c v x x x c v u.u.u.u.u.u.u.u.u.",
"u.u.u.u.u.u.u.u.u.c x x N ..&.1.1.1.&.+.L n x c u.u.u.u.u.u.u.u.",
"u.u.u.u.u.u.u.u.c x H &.8.q.q.8.8.q.q.q.q.1.U x x v u.u.u.u.u.u.",
"u.u.u.u.u.u.u.c c X.8.q.8.8.8.8.8.7.7.8.7.8.q.<.m x v u.u.u.u.u.",
"u.u.u.u.u.u.c c &.q.8.7.8.8.8.8.8.7.8.7.8.8.w.q.3.N x v u.u.u.u.",
"u.u.u.u.u.c x @.q.8.8.8.8.8.8.7.e.r.w.q.0.;.;.0.e.3.m x u.u.u.u.",
"u.u.u.u.v x U q.8.8.8.8.8.8.7.y.] q $.-.G C B k ` t.&.x c u.u.u.",
"u.u.u.u.c m 3.8.8.8.8.8.8.e.6.y <   = Z A B F } >.8.q.I x u.u.u.",
"u.u.u.v x ..q.7.8.8.8.7.8.3.s   - w * 6 [ =.9.q.8.8.q.<.x c u.u.",
"u.u.u.c c 1.q.8.8.8.8.7.y.9 . 9 ; .     w y.8.8.8.8.8.8.H x u.u.",
"u.u.u.x m 8.8.8.8.8.8.q.Y ; . & w o 7 X   ~ r.7.8.8.8.q. .x u.u.",
"u.u.u.x I q.8.8.8.8.8.,.%   , . t f 8 .   T r.7.8.8.8.q.@.x v u.",
"u.u.u.x U q.7.8.8.8.:.j D 5 ; w * 7     O ;.8.7.8.8.7.q.&.x v u.",
"u.u.u.x U q.8.8.8.e.q.` M S h # @ X     R r.7.8.8.8.8.0.&.x n u.",
"u.u.u.x I q.8.e.8.#.j b { 4     o     8 e.7.8.8.8.8.8.q.@.x n u.",
"u.u.u.x H e.,._ E j | >.t.W           %.e.8.8.8.8.8.7.q.o.x u.u.",
"u.u.u.c m ` R _ ,.8.e.8.7.e.7 : a 2 > 2.8.8.8.8.8.8.8.q.L x u.u.",
"u.u.u.v x O.e.e.8.8.8.8.7.w.s 1 4.5.0 -.w.7.8.8.8.8.q.3.n x u.u.",
"u.u.u.u.x J q.7.8.8.8.8.7.w.s u + p : ! r.3.8.8.8.8.q.X.x v u.u.",
"u.u.u.u.v x @.q.8.8.8.8.7.w.g i , * $ E r.7.8.8.8.q.3.v c u.u.u.",
"u.u.u.u.u.c v 3.8.8.8.8.7.w.e.8.w.q.e.e.8.8.8.8.7.q.P x v u.u.u.",
"u.u.u.u.u.v x N 3.q.8.8.8.-.! Q R ' Q E ,.8.7.8.q.U x v u.u.u.u.",
"u.u.u.u.u.u.v x N 3.q.8.8.-.~ ! Q ' / ^ ,.8.q.q.U x c u.u.u.u.u.",
"u.u.u.u.u.u.u.v x v +.8.q.q.e.e.e.8.e.r.e.q.*.N x c u.u.u.u.u.u.",
"u.u.u.u.u.u.u.u.v c x N +.1.7.8.q.q.7.3.@.L c x n u.u.u.u.u.u.u.",
"u.u.u.u.u.u.u.u.u.u.v x x c N H L L m v x x c u.u.u.u.u.u.u.u.u.",
"u.u.u.u.u.u.u.u.u.u.u.u.v c x x x x c c v u.u.u.u.u.u.u.u.u.u.u.",
"u.u.u.u.u.u.u.u.u.u.u.u.u.u.u.u.u.u.u.u.u.u.u.u.u.u.u.u.u.u.u.u.",
"u.u.u.u.u.u.u.u.u.u.u.u.u.u.u.u.u.u.u.u.u.u.u.u.u.u.u.u.u.u.u.u."
};
