/* XPM */
static char *bitcoin__[] = {
/* columns rows colors chars-per-pixel */
"16 16 143 2",
"   c #000000",
".  c #050505",
"X  c #0A0A06",
"o  c #0C0B08",
"O  c #18160C",
"+  c #131111",
"@  c #1D1B17",
"#  c #2E2C08",
"$  c #3C381D",
"%  c #1A1B22",
"&  c #453F25",
"*  c #63610E",
"=  c #696710",
"-  c #5C552F",
";  c #5B5532",
":  c #3F4254",
">  c #575847",
",  c #786E46",
"<  c #7F734D",
"1  c #837843",
"2  c #867B46",
"3  c #867F4B",
"4  c #80784F",
"5  c #BFBB1C",
"6  c #DAB200",
"7  c #DAB300",
"8  c #DBB300",
"9  c #DBB400",
"0  c #DCB400",
"q  c #DCB500",
"w  c #DDB500",
"e  c #DEB700",
"r  c #DCB502",
"t  c #DDB602",
"y  c #DDB705",
"u  c #DEB704",
"i  c #DEB806",
"p  c #DEB807",
"a  c #DEB808",
"s  c #DFB908",
"d  c #DEBD1F",
"f  c #E0BA0C",
"g  c #E1BD12",
"h  c #E3BF17",
"j  c #E3C01A",
"k  c #E4C11C",
"l  c #E4C11E",
"z  c #E5C323",
"x  c #E6C420",
"c  c #E9C729",
"v  c #E8C72D",
"b  c #E9C931",
"n  c #E9C933",
"m  c #EBCC39",
"M  c #EBCD3C",
"N  c #F2EC29",
"B  c #B0A25C",
"V  c #B3A563",
"C  c #C7B867",
"Z  c #C9B869",
"A  c #CDBE6D",
"S  c #D7CD4B",
"D  c #DED44A",
"F  c #D4C65D",
"G  c #E4C843",
"H  c #EDCF42",
"J  c #EDD043",
"K  c #EFD246",
"L  c #EFD248",
"P  c #E6D75A",
"I  c #F2D756",
"U  c #F2D757",
"Y  c #F3D856",
"T  c #F4DB5A",
"R  c #EEE343",
"E  c #D3C26E",
"W  c #D3C475",
"Q  c #D8C577",
"!  c #EADA6F",
"~  c #F4DA60",
"^  c #F5DB60",
"/  c #F7DF67",
"(  c #F6DE69",
")  c #E9D772",
"_  c #EDD975",
"`  c #E5D679",
"'  c #F8E06D",
"]  c #F9E16F",
"[  c #F7E476",
"{  c #F9E170",
"}  c #F8E173",
"|  c #F9E37B",
" . c #F9E47F",
".. c #F3E184",
"X. c #F4E185",
"o. c #FAE580",
"O. c #FBE680",
"+. c #FBE681",
"@. c #F9E582",
"#. c #FAE582",
"$. c #FBE782",
"%. c #FDE780",
"&. c #FCE781",
"*. c #FDE782",
"=. c #FDE882",
"-. c #FCE982",
";. c #FDE883",
":. c #FEE983",
">. c #FDEA83",
",. c #FDED83",
"<. c #FDE887",
"1. c #FEEA86",
"2. c #FEEA87",
"3. c #FFED85",
"4. c #FFEE87",
"5. c #F6E488",
"6. c #F9E589",
"7. c #FAE688",
"8. c #FFEB89",
"9. c #FFEA8B",
"0. c #FFED88",
"q. c #FFEE8B",
"w. c #FFEB8C",
"e. c #FFED8D",
"r. c #FFEC8E",
"t. c #FFED8E",
"y. c #FFED8F",
"u. c #FFEF8E",
"i. c #FFEF8F",
"p. c #FEF187",
"a. c #FFF38B",
"s. c #FFF488",
"d. c #FFF58A",
"f. c #FFF78B",
"g. c #FFF58D",
"h. c #FFFC8E",
"j. c #FFED91",
"k. c #FFEE91",
"l. c #FFEF94",
"z. c #FFEC9B",
"x. c #FFF193",
"c. c #FFF995",
"v. c None",
/* pixels */
"v.v.v.v.v.v.v.v.v.v.v.v.v.v.v.v.",
"v.v.v.v.v.v.9 s f u 8 v.v.v.v.v.",
"v.v.v.v.t z U ] } ( K g 8 v.v.v.",
"v.v.v.t K y.w.<.g.y.z.9.c 9 v.v.",
"v.v.8 J l.*.>.d.Z ) R D ..l v.v.",
"v.v.j 1.>.>.p.1 + = N P 6.( u v.",
"v.v.H y.o.a., o -   < c.&.1.l v.",
"v.9 U w.q.! * $ ; . - f.o.y.b v.",
"v.9 T y._ S 5 #   O ` q.*.y.b v.",
"v.t G W F [ Q @ % 3 h.o.>.1.z v.",
"v.v.d 7.3.9.,.> : < d.o.9.} p v.",
"v.v.t U j.*.>.V 2 B 3.>.y.v v.v.",
"v.v.v.s ~ x...C E A 5.y.M t v.v.",
"v.v.v.v.t M '  .o.| ^ z 9 v.v.v.",
"v.v.v.v.v.8 p j l g t v.v.v.v.v.",
"v.v.v.v.v.v.v.v.v.v.v.v.v.v.v.v."
};
