/* XPM */
static char *bitcoin__[] = {
/* columns rows colors chars-per-pixel */
"64 64 211 2",
"   c #010101",
".  c #0C0B06",
"X  c #05050B",
"o  c #0D0D0B",
"O  c #100F07",
"+  c #100F0A",
"@  c #111102",
"#  c #191900",
"$  c #15130C",
"%  c #19170E",
"&  c #1A180E",
"*  c #1E1C10",
"=  c #14151A",
"-  c #1C1C1C",
";  c #211E12",
":  c #211D1A",
">  c #252408",
",  c #222012",
"<  c #2B2717",
"1  c #2C2A15",
"2  c #28241A",
"3  c #2E2B19",
"4  c #322E1A",
"5  c #36321C",
"6  c #39341F",
"7  c #242529",
"8  c #2C2D2D",
"9  c #3A3726",
"0  c #3F3A22",
"q  c #373736",
"w  c #3C3C3B",
"e  c #433E24",
"r  c #403F38",
"t  c #575705",
"y  c #797A0A",
"u  c #676510",
"i  c #474120",
"p  c #4E4727",
"a  c #4C4628",
"s  c #4F492A",
"d  c #544D2D",
"f  c #59522F",
"g  c #41413F",
"h  c #5C5433",
"j  c #5E5832",
"k  c #625B34",
"l  c #666127",
"z  c #777229",
"x  c #666037",
"c  c #6A6136",
"v  c #6B633A",
"b  c #6F683C",
"n  c #746B3E",
"m  c #7A7437",
"M  c #3E3F44",
"N  c #424242",
"B  c #43444A",
"V  c #4C4C4C",
"C  c #515150",
"Z  c #595958",
"A  c #716745",
"S  c #776E40",
"D  c #7C7242",
"F  c #656564",
"G  c #757575",
"H  c #7B7B79",
"J  c #827D2B",
"K  c #817745",
"L  c #837A45",
"P  c #897D45",
"I  c #857B49",
"U  c #8A7F49",
"Y  c #828218",
"T  c #9FA009",
"R  c #AFAF0E",
"E  c #B1B203",
"W  c #B4B30E",
"Q  c #BABB0A",
"!  c #AAA61E",
"~  c #AFAD1D",
"^  c #BDBC13",
"/  c #868129",
"(  c #89852C",
")  c #9E963D",
"_  c #A19C2F",
"`  c #A69D3A",
"'  c #A5A022",
"]  c #AAA525",
"[  c #ADA633",
"{  c #AFA930",
"}  c #AEA638",
"|  c #DCB601",
" . c #DEB806",
".. c #DEB908",
"X. c #E1BB07",
"o. c #E0BB0D",
"O. c #E1BD13",
"+. c #E3BF19",
"@. c #D7BA38",
"#. c #C7C707",
"$. c #CECF04",
"%. c #C5C40F",
"&. c #CDCD0A",
"*. c #D3D401",
"=. c #DEDE02",
"-. c #E4C11D",
";. c #E8C41A",
":. c #E1E200",
">. c #E7E800",
",. c #EAEB00",
"<. c #EEF000",
"1. c #F2F302",
"2. c #F6F800",
"3. c #FFFF01",
"4. c #FFFF14",
"5. c #FEFD1E",
"6. c #E6C424",
"7. c #E7C629",
"8. c #E8C72C",
"9. c #E8C82E",
"0. c #EACA33",
"q. c #ECCD3C",
"w. c #FBF922",
"e. c #EEE73A",
"r. c #F7F53B",
"t. c #8C824B",
"y. c #92864C",
"u. c #95894E",
"i. c #988C4E",
"p. c #9F9640",
"a. c #958A51",
"s. c #9A8D50",
"d. c #9D9253",
"f. c #A79D43",
"g. c #AE9C47",
"h. c #AB9F4F",
"j. c #A19555",
"k. c #A59857",
"l. c #A69C5A",
"z. c #AA9D5C",
"x. c #ABA243",
"c. c #B2A64F",
"v. c #AEA15B",
"b. c #B1A553",
"n. c #BAAD54",
"m. c #B3A65C",
"M. c #B9AB5E",
"N. c #BEB158",
"B. c #BAAC62",
"V. c #BFB064",
"C. c #C5BB47",
"Z. c #CABF48",
"A. c #C1B266",
"S. c #CCBC65",
"D. c #C5B56B",
"F. c #C8B76B",
"G. c #CABA69",
"H. c #D0BF6E",
"J. c #C5B370",
"K. c #D0BF72",
"L. c #EDCF42",
"P. c #EED146",
"I. c #EFD249",
"U. c #F0D44E",
"Y. c #F2D652",
"T. c #F3D95B",
"R. c #D3C26E",
"E. c #D7C670",
"W. c #DBCB74",
"Q. c #D5C278",
"!. c #D9C679",
"~. c #DDC97B",
"^. c #DFD278",
"/. c #F6DC63",
"(. c #F7DE69",
"). c #F8DF6B",
"_. c #E2CF75",
"`. c #E3D176",
"'. c #E3D379",
"]. c #E9D77A",
"[. c #EDDB7C",
"{. c #F0DF7E",
"}. c #F8E16E",
"|. c #EFE17E",
" X c #F9E273",
".X c #F3E17F",
"XX c #FCE67C",
"oX c #848484",
"OX c #888887",
"+X c #898989",
"@X c #8E8E90",
"#X c #939393",
"$X c #A2A2A2",
"%X c #EAD583",
"&X c #F0DB86",
"*X c #ECE080",
"=X c #F5E381",
"-X c #FBE682",
";X c #F6E882",
":X c #FEE984",
">X c #F7E189",
",X c #FBE68B",
"<X c #FFEC8B",
"1X c #FFF187",
"2X c #FFF38A",
"3X c #FFF98D",
"4X c #FFFF93",
"5X c #C0C0C0",
"6X c #C8C7C4",
"7X c #FFFFFF",
"8X c None",
/* pixels */
"8X8X8X8X8X8X8X8X8X8X8X8X8X8X8X8X8X8X8X8X8X8X8X8X8X8X8X8X8X8X8X8X8X8X8X8X8X8X8X8X8X8X8X8X8X8X8X8X8X8X8X8X8X8X8X8X8X8X8X8X8X8X8X8X",
"8X8X8X8X8X8X8X8X8X8X8X8X8X8X8X8X8X8X8X8X8X8X8X8X8X8X8X8X8X8X8X8X8X8X8X8X8X8X8X8X8X8X8X8X8X8X8X8X8X8X8X8X8X8X8X8X8X8X8X8X8X8X8X8X",
"8X8X8X8X8X8X8X8X8X8X8X8X8X8X8X8X8X8X8X8X8X8X8X8X8X8X8X8X8X8X8X8X8X8X8X8X8X8X8X8X8X8X8X8X8X8X8X8X8X8X8X8X8X8X8X8X8X8X8X8X8X8X8X8X",
"8X8X8X8X8X8X8X8X8X8X8X8X8X8X8X8X8X8X8X8X8X8X8X8X8X8X8X8X8X8X8X8X8X8X8X8X8X8X8X8X8X8X8X8X8X8X8X8X8X8X8X8X8X8X8X8X8X8X8X8X8X8X8X8X",
"8X8X8X8X8X8X8X8X8X8X8X8X8X8X8X8X8X8X8X8X8X8X8X8X8X8X8X8X8X8X . . . . . .8X8X8X8X8X8X8X8X8X8X8X8X8X8X8X8X8X8X8X8X8X8X8X8X8X8X8X8X",
"8X8X8X8X8X8X8X8X8X8X8X8X8X8X8X8X8X8X8X8X8X8X8X8X8X . . . . . . . . . . . . . . . .8X8X8X8X8X8X8X8X8X8X8X8X8X8X8X8X8X8X8X8X8X8X8X",
"8X8X8X8X8X8X8X8X8X8X8X8X8X8X8X8X8X8X8X8X8X8X . . . . . ... ... . . . ......... . . . . .8X8X8X8X8X8X8X8X8X8X8X8X8X8X8X8X8X8X8X8X",
"8X8X8X8X8X8X8X8X8X8X8X8X8X8X8X8X8X8X8X8X . . . . ... .| | | | |  .| | | | | | |  ... . . . .8X8X8X8X8X8X8X8X8X8X8X8X8X8X8X8X8X8X",
"8X8X8X8X8X8X8X8X8X8X8X8X8X8X8X8X8X8X8X . . . . .| | | -.0.P.T./.(.(.(.T.Y.L.7.O.| | | .. . . . .8X8X8X8X8X8X8X8X8X8X8X8X8X8X8X8X",
"8X8X8X8X8X8X8X8X8X8X8X8X8X8X8X8X8X . . . . .| | -.U.}.:X<X<X<X<X<X<X<X<X<X<X<XXX/.q.O.|  ... . . . .8X8X8X8X8X8X8X8X8X8X8X8X8X8X",
"8X8X8X8X8X8X8X8X8X8X8X8X8X8X8X8X . . . .| | 7./.:X<X:X:X-X:X-X:X:X:X:X-X-X:X:X:X<X<XXXU.O.|  ... . . .8X8X8X8X8X8X8X8X8X8X8X8X8X",
"8X8X8X8X8X8X8X8X8X8X8X8X8X8X8X . . . .| -./.<X<X:X-X:X:X:X:X:X:X:X:X:X:X:X:X:X:X:X:X:X<X:XI...| .. . . .8X8X8X8X8X8X8X8X8X8X8X8X",
"8X8X8X8X8X8X8X8X8X8X8X8X8X8X . ...|  .P.:X<X:X-X:X:X:X:X:X:X:X:X:X:X:X:X:X:X:X:X:X:X:X:X,X<X X7.|  . . . .8X8X8X8X8X8X8X8X8X8X8X",
"8X8X8X8X8X8X8X8X8X8X8X8X8X . ...| o./.<X:X-X:X:X:X:X:X:X:X:X:X:X:X:X:X:X:X:X:X:X:X:X:X:X:X:X<X:XL.|  . . . .8X8X8X8X8X8X8X8X8X8X",
"8X8X8X8X8X8X8X8X8X8X8X8X . ...| O. X<X:X:X:X:X:X:X:X:X:X:X:X:X:X:X:X:X:X:X:X:X:X:X:X:X:X:X:X:X:X<XY. . ... . .8X8X8X8X8X8X8X8X8X",
"8X8X8X8X8X8X8X8X8X8X8X . ...| O. X<X:X:X:X:X:X:X:X:X:X:X:X:X:X:X:X:X:X:X:X:X:X:X:X:X:X-X-X-X:X:X:X<XY.|  . . . .8X8X8X8X8X8X8X8X",
"8X8X8X8X8X8X8X8X8X8X . . . ... X<X:X:X:X:X:X:X:X:X:X:X:X:X-X:X:X:X:X-X-X:X:X:X:X-X-X<X2X1X<X-X-X<X:X<XY.|  . . .8X8X8X8X8X8X8X8X",
"8X8X8X8X8X8X8X8X8X8X . . .| /.<X:X:X:X:X:X:X:X:X:X:X:X:X:X:X:X:X-X-X2X2X:X:X:X:X<X3X].M.A.%X<X2X:X:X:X<Xq.| .. . .8X8X8X8X8X8X8X",
"8X8X8X8X8X8X8X8X8X . ...| P.<X:X:X:X:X:X:X:X:X:X:X:X:X:X:X:X:X-X<X2XB.E.<X-X2X<X~.c.! *.$.! f.G..X:X:X:X:X-.|  . . .8X8X8X8X8X8X",
"8X8X8X8X8X8X8X8X . . .| -.:X:X:X:X:X:X:X:X:X:X:X:X:X:X:X:X-X-X3X|.d     m 2XJ.f.W >.3.3.3.3.2.E l D.1X-X<X(. . . . .8X8X8X8X8X8X",
"8X8X8X8X8X8X8X8X . . .| /.<X-X:X:X:X:X:X:X:X:X:X:X:X:X:X-X1X<Xj.I *       z &.<.3.3.3.3.1.#.] n.`.:X:X:XXX<Xq.| .. . .8X8X8X8X8X",
"8X8X8X8X8X8X8X . ...| 8.<X-X:X:X:X:X:X:X:X:X:X:X:X:X:X-X1XG.6   * L       # :.3.3.3.:.W ` D.&X2X<X:X:X:X:X<XXXo. . . .8X8X8X8X8X",
"8X8X8X8X8X8X8X . . .| (.<XXX:X:X:X:X:X:X:X:X:X:X:X:X-X<X3Xk   .   e k & k A ) 4.$._ b.~.<X1X:X-X:X:X:X:X:X:X<Xq.|  . . .8X8X8X8X",
"8X8X8X8X8X8X8X .X.| -.:X:X:X:X:X:X:X:X:X:X:X:X:X:X-X3XD.3 L o   X 0 v.n 4 O 2 1 u.,X2X1X:X:X:X:X:X:X:X:X:X:X:X}. . . . .8X8X8X8X",
"8X8X8X8X8X8X . ...| U.<X:X:X:X:X:X:X:X:X:X:X:X:X:X<XM..   0 n   k c .           5 ;X-X-X:X:X:X:X:X:X:X:X:X:X:X:X6.|  . .8X8X8X8X",
"8X8X8X8X8X8X . . . .}.<X:X:X:X:X:X:X:X:X:X:X:X:X=X4XL   .   k k d                 b 3X-X:X:X:X:X:X:X:X:X:X:X:X<XI.| .. . .8X8X8X",
"8X8X8X8X8X8X . .| -.:X:X:X:X:X:X:X:X:X:X:X:X:X-X3Xk.n 1       t.D o       %         V.1X-X:X:X:X:X:X:X:X:X:X:X<X(. . . . .8X8X8X",
"8X8X8X8X8X8X ...| 0.<X:X:X:X-X:X:X:X:X:X:X:X-X2Xd.  o D %     % z.D c s n t.        6 <X:X:X:X:X:X:X:X:X:X:X:X:XXXO. . . .8X8X8X",
"8X8X8X8X8X . ...| U.<X:X:X:X:X:X:X:X:X:X:X-X:X.X&     * D .     5 D . h t.t.+       < :X:X:X:X:X:X:X:X:X:X:X:X:X<X6.|  . .8X8X8X",
"8X8X8X8X8X . . .| T.<X:X:X:X:X:X:X:X:X:X:X<X<X~.D X     < A   o d B.u.m.4           6 <X:X:X:X:X:X:X:X:X:X:X:X-X<X0.| .. .8X8X8X",
"8X8X8X8X8X . . . .(.<X-X:X:X:X:X:X:X:X-X<XW.) ^ 5.C.:     5 k.I h X k.6             s.2X-X:X:X:X:X:X:X:X:X:X:X:X<XL.|  . .8X8X8X",
"8X8X8X8X8X . . . .}.<X:X:X:X:X:X:X:X:X:X<XR.( *.3.3.e.d   v h     p k             d 2X:X:X:X:X:X:X:X:X:X:X:X:X:X<XI.| .. .8X8X8X",
"8X8X8X8X8X . . . . X<X:X:X:X:X:X:X:X:X:X-X2X2XD./ =.3.w.Z.r.y X   c .           % ^.<X-X:X:X:X:X:X:X:X:X:X:X:X:X<XU.|  . .8X8X8X",
"8X8X8X8X8X . . . .}.:X:X:X:X:X:X:X:X-X:X2X<XQ.c.] 1.3.,.W t >   * 6             d.3X-X:X:X:X:X:X:X:X:X:X:X:X:X-X<XL.| .. .8X8X8X",
"8X8X8X8X8X . . .| (.<X:X:X:X:X:X-X:X2X<XK.x.^ ,.,.%.u @         ; $           d 2X-X:X:X:X:X:X:X:X:X:X:X:X:X:X:X<XL.| .. .8X8X8X",
"8X8X8X8X8X . . .| T.<X-X:X:X:X:X2X,XG.} Q $.%.[ m.%XI           +           $ ^.<X-X:X:X:X:X:X:X:X:X:X:X:X:X:X-X<X0.|  . .8X8X8X",
"8X8X8X8X8X8X ...| I.<X-X-X<X2X;XS._ T R { m.Q.-X2X2X*X;                     i.3X-X:X:X:X:X:X:X:X:X:X:X:X:X:X:X:X:X6.| .. .8X8X8X",
"8X8X8X8X8X8X ...| 9.:X<X3X=XM./ Y _ n.~.>X2X1X:X-X-X3Xl.                  X W.1X:X:X:X:X:X:X:X:X:X:X:X:X:X:X:X:XXXO.|  . .8X8X8X",
"8X8X8X8X8X8X ...| +.1X].u.j m n.'.,X2X2X:X:X-X:X:X:X-X3Xk       o - o     > =X<X:X:X:X:X:X:X:X:X:X:X:X:X:X:X:X<X/.|  . . .8X8X8X",
"8X8X8X8X8X8X . . .X.g.D i.`.<X2X<X:X-X-X:X:X:X:X:X-X-X3XI   q F oX@XoXF 7 9 :X:X:X:X:X:X:X:X:X:X:X:X:X:X:X:X-X<XL.| .. .8X8X8X8X",
"8X8X8X8X8X8X . ...| @.<X3X1X:X-X:X:X:X:X:X:X:X:X:X:X-X3XU B #XV w 7X5XC @Xg `.<X-X:X:X:X:X:X:X:X:X:X:X:X:X:X:X:X-.|  . .8X8X8X8X",
"8X8X8X8X8X8X8X . .| -.:X-X:X:X:X:X:X:X:X:X:X:X:X:X:X-X3Xa.= 8 g B #X$XG -   G.1X-X:X:X:X:X:X:X:X:X:X:X:X:X-X<X(.|  . . .8X8X8X8X",
"8X8X8X8X8X8X8X . ...| T.<X:X:X:X:X:X:X:X:X:X:X:X:X:X-X3Xs.  w o   M w +XH   d.3X-X:X:X:X:X:X:X:X:X:X:X:X:X-X<X9.|  . . .8X8X8X8X",
"8X8X8X8X8X8X8X . . .| -.:X:X:X:X:X:X:X:X:X:X:X:X:X;X-X3Xi.M 6Xg q Z   OXg   S 3X-X:X:X:X:X:X:X:X:X:X:X:X:X:X}. . . . .8X8X8X8X8X",
"8X8X8X8X8X8X8X8X . ...| Y.<X:X:X:X:X:X:X:X-X:X:X:X:X-X3Xk.X B B 7     =     i 2X-X:X:X:X:X:X:X:X:X:X:X:X:X<X7.| .. . .8X8X8X8X8X",
"8X8X8X8X8X8X8X8X . . .| O.XX:X:X:X:X:X:X:X:X:X:X:X:X-X2XS.d f p i d d p d s b XX:X:X:X:X:X:X:X:X:X:X:X:X<XT.|  . . .8X8X8X8X8X8X",
"8X8X8X8X8X8X8X8X8X . ...| 0.<X:X:X:X:X:X:X:X:X:X:X:X:XXX<X3X3X1X3X2X2X2X3X3X1X:X:X:X:X:X:X:X:X:X:X:X-X:XXXO.|  . . .8X8X8X8X8X8X",
"8X8X8X8X8X8X8X8X8X8X . ...| U.<X-X:X:X:X:X:X:X:X:X:X:X<X1X-X<X:X<X:X<X:X:X:X<X:X:X:X:X:X:X:X:X:X:X:X:X<X6.| .. . .8X8X8X8X8X8X8X",
"8X8X8X8X8X8X8X8X8X8X . . . .| T.<X:X:X:X:X:X:X:X:X:X<X[.R.{.R._.G..XR.`.W.].`.*X.X:X:X:X:X:X:X:X:X:X<Xq.|  . . .8X8X8X8X8X8X8X8X",
"8X8X8X8X8X8X8X8X8X8X8X . . . ...(.<X-X:X:X:X:X:X:X-X1Xy.v.u.y.b K j G.y.t.D c b W.2X-X:X:X:X:X:X:X<Xq.| .. . . .8X8X8X8X8X8X8X8X",
"8X8X8X8X8X8X8X8X8X8X8X8X . ... . .T.<X:X:X:X:X:X:X-X1Xk.L I s.m K m V.i.u.U d.m E.2X:X:X:X:X:X:X:Xq.|  . . . .8X8X8X8X8X8X8X8X8X",
"8X8X8X8X8X8X8X8X8X8X8X8X8X . . . .| P.<X:X:X:X:X:X:X:X-X[.;X]..X`.<X`..X].-X.X<X-X:X:X:X:X-X<XXX7.| .. . . .8X8X8X8X8X8X8X8X8X8X",
"8X8X8X8X8X8X8X8X8X8X8X8X8X8X . . . .| 6. X<X:X:X:X:X:X:X<X:X<X:X<X:X<X:X<X:X:X:X:X:X-X:X<X<XT.O.|  . . . .8X8X8X8X8X8X8X8X8X8X8X",
"8X8X8X8X8X8X8X8X8X8X8X8X8X8X8X . . ...| ..I.XX<X:X:XXX:X:X:X:X:X:X:X:X:X-X:XXX:X:X:X<X<X}.9.| | .. . . .8X8X8X8X8X8X8X8X8X8X8X8X",
"8X8X8X8X8X8X8X8X8X8X8X8X8X8X8X8X . . .....| O.P. X<X<X<X:X:X:X:X:X:XXX:X:X:X:X<X<X:X(.0. .|  . . . . .8X8X8X8X8X8X8X8X8X8X8X8X8X",
"8X8X8X8X8X8X8X8X8X8X8X8X8X8X8X8X8X . . .....| | o.9.Y. XXX<X<X<X<X<X<X<X<X<X-X(.I.-.| |  ... . . .8X8X8X8X8X8X8X8X8X8X8X8X8X8X8X",
"8X8X8X8X8X8X8X8X8X8X8X8X8X8X8X8X8X8X8X . . . ... .| |  .-.9.q.P.U.Y.I.P.q.6.O.| | |  . . . . . .8X8X8X8X8X8X8X8X8X8X8X8X8X8X8X8X",
"8X8X8X8X8X8X8X8X8X8X8X8X8X8X8X8X8X8X8X8X8X . . . ... . .| | | | | | | | | | |  ... . . . . .8X8X8X8X8X8X8X8X8X8X8X8X8X8X8X8X8X8X",
"8X8X8X8X8X8X8X8X8X8X8X8X8X8X8X8X8X8X8X8X8X8X8X . . . . . . ..... ......... ... . . . . .8X8X8X8X8X8X8X8X8X8X8X8X8X8X8X8X8X8X8X8X",
"8X8X8X8X8X8X8X8X8X8X8X8X8X8X8X8X8X8X8X8X8X8X8X8X8X8X . . . . . . . . . . . . . . .8X8X8X8X8X8X8X8X8X8X8X8X8X8X8X8X8X8X8X8X8X8X8X",
"8X8X8X8X8X8X8X8X8X8X8X8X8X8X8X8X8X8X8X8X8X8X8X8X8X8X8X8X8X8X8X8X8X .8X8X8X8X8X8X8X8X8X8X8X8X8X8X8X8X8X8X8X8X8X8X8X8X8X8X8X8X8X8X",
"8X8X8X8X8X8X8X8X8X8X8X8X8X8X8X8X8X8X8X8X8X8X8X8X8X8X8X8X8X8X8X8X8X8X8X8X8X8X8X8X8X8X8X8X8X8X8X8X8X8X8X8X8X8X8X8X8X8X8X8X8X8X8X8X",
"8X8X8X8X8X8X8X8X8X8X8X8X8X8X8X8X8X8X8X8X8X8X8X8X8X8X8X8X8X8X8X8X8X8X8X8X8X8X8X8X8X8X8X8X8X8X8X8X8X8X8X8X8X8X8X8X8X8X8X8X8X8X8X8X",
"8X8X8X8X8X8X8X8X8X8X8X8X8X8X8X8X8X8X8X8X8X8X8X8X8X8X8X8X8X8X8X8X8X8X8X8X8X8X8X8X8X8X8X8X8X8X8X8X8X8X8X8X8X8X8X8X8X8X8X8X8X8X8X8X"
};
